<svg width="225" height="225" viewBox="0 0 225 225" fill="none" xmlns="http://www.w3.org/2000/svg">
<g opacity="0.8">
<path opacity="0.4" d="M56.2742 177.047C56.4673 177.117 123.578 201.479 123.758 201.491L188.066 224.875C188.543 225.047 188.995 225.043 189.324 224.854C189.652 224.669 189.829 224.316 189.817 223.88L189.361 207.441C189.336 206.533 190.121 206.089 191.111 206.45L194.702 207.757C199.662 209.557 203.577 207.338 203.458 202.802L203.092 189.649C203.08 189.214 202.879 188.725 202.534 188.293C202.188 187.862 201.724 187.525 201.248 187.348L100.642 150.763C100.445 150.689 100.26 150.66 100.083 150.648L57.2726 135.079L56.2742 177.047ZM134.676 166.492L134.766 169.688L131.368 168.451L131.278 165.255L134.676 166.492ZM127.489 163.878L127.58 167.075L124.182 165.838L124.091 162.642L127.489 163.878ZM120.303 161.265L120.393 164.462L116.995 163.225L116.905 160.028L120.303 161.265ZM117.907 196.108L117.817 192.912L121.215 194.148L121.305 197.345L117.907 196.108ZM113.116 158.652L113.207 161.849L109.809 160.612L109.718 157.415L113.116 158.652ZM110.721 193.495L110.63 190.298L114.029 191.535L114.119 194.732L110.721 193.495ZM105.93 156.039L106.02 159.235L102.622 157.999L102.532 154.802L105.93 156.039ZM103.534 190.882L103.444 187.685L106.842 188.922L106.932 192.119L103.534 190.882ZM77.2787 148.877L73.967 147.673L73.8766 144.386L77.1883 145.59L77.2787 148.877ZM70.0923 146.264L66.7806 145.06L66.6902 141.81L70.0019 143.013L70.0923 146.264ZM59.4996 139.192L62.8114 140.396L62.9018 143.646L59.59 142.442L59.4996 139.192ZM60.5063 175.326L60.4159 172.039L63.7277 173.242L63.8181 176.53L60.5063 175.326ZM67.4092 177.836L67.3188 174.549L70.91 175.856L71.0004 179.143L67.4092 177.836ZM74.5956 180.449L74.5052 177.162L78.0964 178.469L78.1868 181.756L74.5956 180.449ZM80.7795 146.892L84.3706 148.199L84.461 151.486L80.8699 150.179L80.7795 146.892ZM81.7821 183.063L81.6917 179.776L85.2828 181.082L85.3732 184.369L81.7821 183.063ZM87.9659 149.505L91.5571 150.812L91.6475 154.099L88.0563 152.793L87.9659 149.505ZM88.9685 185.676L88.8781 182.389L92.4692 183.695L92.5596 186.983L88.9685 185.676ZM95.1523 152.119L98.7435 153.425L98.8339 156.712L95.2427 155.406L95.1523 152.119ZM96.1549 188.289L96.0645 185.002L99.6557 186.309L99.7461 189.596L96.1549 188.289ZM125.094 198.722L125.003 195.434L128.594 196.741L128.685 200.028L125.094 198.722ZM132.28 201.335L132.19 198.048L135.781 199.354L135.871 202.641L132.28 201.335ZM138.46 167.778L142.051 169.084L142.141 172.371L138.55 171.065L138.46 167.778ZM139.467 203.948L139.376 200.661L142.967 201.968L143.058 205.255L139.467 203.948ZM145.646 170.391L149.237 171.698L149.328 174.985L145.737 173.678L145.646 170.391ZM146.653 206.561L146.563 203.274L150.154 204.581L150.244 207.868L146.653 206.561ZM152.833 173.004L156.424 174.311L156.514 177.598L152.923 176.291L152.833 173.004ZM153.839 209.175L153.749 205.887L157.34 207.194L157.431 210.481L153.839 209.175ZM160.019 175.617L163.61 176.924L163.701 180.211L160.11 178.904L160.019 175.617ZM161.026 211.788L160.935 208.501L164.527 209.807L164.617 213.094L161.026 211.788ZM167.206 178.231L170.797 179.537L170.887 182.824L167.296 181.518L167.206 178.231ZM168.208 214.401L168.118 211.114L171.709 212.421L171.799 215.708L168.208 214.401ZM174.392 180.844L177.983 182.15L178.074 185.438L174.482 184.131L174.392 180.844ZM175.395 217.014L175.304 213.727L178.895 215.034L178.986 218.321L175.395 217.014ZM181.578 183.457L185.17 184.764L185.26 188.051L181.669 186.744L181.578 183.457ZM182.581 219.628L182.491 216.34L186.082 217.647L186.172 220.934L182.581 219.628ZM188.855 189.357L188.765 186.07L192.356 187.377L192.446 190.664L188.855 189.357ZM196.042 191.971L195.951 188.684L199.542 189.99L199.633 193.277L196.042 191.971Z" fill="#9CF43D"/>
<path opacity="0.4" d="M55.0866 132.758L55.1236 129.832C55.1565 127.149 52.6213 124.918 49.4821 124.877L44.5433 124.815C44.1365 122.49 41.8027 120.669 38.9716 120.632L32.1345 120.546C29.3035 120.509 26.9244 122.268 26.456 124.581L21.9979 124.523C18.8628 124.482 16.266 126.648 16.2331 129.331L15.5839 180.38C15.5511 183.063 18.0862 185.294 21.2254 185.335L48.7056 185.688C51.8406 185.729 54.4374 183.564 54.4703 180.881L54.5073 177.955L55.0866 132.758ZM25.7082 177.376C25.6918 178.617 24.492 179.619 23.0374 179.603C21.587 179.582 20.4119 178.551 20.4242 177.31L20.9871 133.349C21.0035 132.108 22.2033 131.106 23.6579 131.122C25.1083 131.143 26.2834 132.174 26.2711 133.415L25.7082 177.376Z" fill="#9CF43D"/>
</g>
<path d="M51.2531 71.7121C51.1052 96.4557 69.1924 103.264 78.0306 104.838C78.5648 105.557 79.3331 106.112 80.3973 106.37C85.9895 107.759 83.0722 108.602 83.1626 112.957C83.2571 117.304 82.6613 137.405 87.1564 139.311C91.6474 141.21 110.076 135.063 118.421 134.689C126.758 134.315 134.877 135.934 136.627 130.169C138.378 124.404 134.622 122.157 135.797 117.83C136.972 113.508 136.451 112.591 134.643 112.193C132.843 111.794 132.773 115.237 130.6 115.011C128.434 114.79 129.223 111.544 127.785 110.968C126.347 110.397 125.71 115.094 123.717 115.053C121.724 115.007 122.55 110.134 120.36 110.812C118.174 111.494 119.329 116.774 117.702 116.918C116.066 117.07 116.177 111.63 114.538 111.963C112.899 112.291 112.599 117.908 110.971 117.871C109.344 117.838 108.535 112.928 106.345 113.791C104.159 114.654 106.25 118.315 104.253 118.64C102.252 118.96 101.969 115.147 99.405 116.367C96.841 117.584 98.612 119.798 98.349 123.772C98.349 123.772 95.4687 124.076 94.3634 123.328C90.8832 120.982 91.5529 110.57 90.7435 102.438C93.443 100.791 96.122 98.202 97.6012 94.1014C98.3901 96.0736 98.9489 98.6869 98.7311 100.721C98.3285 104.521 97.5519 108.318 99.1831 108.519C100.814 108.721 101.961 103.839 103.954 103.868C105.942 103.893 105.342 108.778 107.158 108.618C108.97 108.458 107.939 103.737 110.655 103.589C113.383 103.441 114.234 107.977 116.227 107.817C118.22 107.661 117.369 102.94 119.723 102.788C122.078 102.64 123.651 107.55 125.644 107.57C127.637 107.599 125.887 102.319 128.792 101.81C131.697 101.3 132.177 106.736 134.532 106.769C136.89 106.798 135.674 102.257 137.12 102.274C138.571 102.29 137.071 106.436 140.157 105.931C143.247 105.425 142.63 95.9914 142.491 92.3674C142.355 88.7434 146.891 88.2544 146.891 88.2544C146.891 88.2544 156.679 87.823 157.924 74.4281C158.712 65.9432 154.217 61.6248 149.94 59.4841C150.084 59.48 150.215 59.4677 150.371 59.4553C144.94 34.2967 101.698 25.5489 84.6377 30.0769C64.6932 35.3691 51.4421 40.7394 51.2531 71.7121ZM133.694 76.8687C131.335 69.7357 138.193 63.1739 144.488 62.8082C152.237 62.3603 154.205 67.2375 155.031 72.9283C155.861 78.689 152.446 84.6674 146.665 85.2673C140.884 85.8672 136.052 84.0018 133.694 76.8687ZM116.613 92.7454C115.195 91.0361 118.639 82.0829 119.736 81.9391C120.837 81.7953 122.332 85.3988 125.476 89.4994C128.644 93.6329 122.497 89.9021 123.064 92.3222C123.623 94.7465 120.155 95.0875 120.13 92.3345C120.105 89.5734 118.035 94.4629 116.613 92.7454ZM108.321 71.3177C110.581 78.9766 106.024 89.898 96.9314 90.0747C87.8385 90.2513 83.3146 78.6725 83.3598 74.7034C83.4338 68.4784 88.7753 63.1698 92.8842 62.6562C96.9972 62.1384 106.07 63.6546 108.321 71.3177Z" fill="#9CF43D"/>
<path d="M139.113 75.5457C138.279 76.3223 138.242 77.6248 139.019 78.4506C139.795 79.2847 141.098 79.3217 141.924 78.5452C142.758 77.7686 142.795 76.4661 142.018 75.6402C141.237 74.8061 139.935 74.7691 139.113 75.5457Z" fill="#9CF43D"/>
<path d="M91.4174 76.9223C90.645 76.0882 89.3424 76.0512 88.5207 76.8278C87.6866 77.6044 87.6496 78.9069 88.4262 79.7328C89.2027 80.5669 90.5012 80.6038 91.3311 79.8273C92.1488 79.0548 92.194 77.7564 91.4174 76.9223Z" fill="#9CF43D"/>
<path d="M181.324 135.572L167.805 138.51C167.686 138.506 167.563 138.514 167.432 138.543L103.317 151.56C103.14 151.531 102.955 151.523 102.758 151.564L2.45615 171.928C1.97952 172.022 1.51522 172.326 1.16596 172.77C0.816707 173.214 0.611263 173.76 0.590719 174.29L0.00725891 190.27C-0.189967 195.784 3.65594 199.436 8.59891 198.438L12.1819 197.711C13.1721 197.509 13.9404 198.241 13.8994 199.346L13.1721 219.319C13.1515 219.849 13.3241 220.322 13.6446 220.626C13.9651 220.934 14.4171 221.049 14.8896 220.955L79.0045 207.938C79.1811 207.967 79.3702 207.975 79.5633 207.934L143.395 194.974C143.514 194.978 143.637 194.97 143.764 194.945L181.78 187.574L181.324 135.572ZM72.1632 161.849L72.0235 165.735L68.6337 166.422L68.7734 162.535L72.1632 161.849ZM79.3291 160.394L79.1894 164.281L75.7995 164.967L75.9392 161.08L79.3291 160.394ZM86.4908 158.939L86.3511 162.826L82.9613 163.513L83.101 159.626L86.4908 158.939ZM81.5068 203.463L81.6465 199.576L85.0363 198.89L84.8966 202.777L81.5068 203.463ZM93.6567 157.485L93.517 161.372L90.1272 162.058L90.2669 158.171L93.6567 157.485ZM88.6685 202.009L88.8082 198.122L92.1981 197.435L92.0583 201.322L88.6685 202.009ZM100.823 156.03L100.683 159.917L97.2931 160.604L97.4328 156.717L100.823 156.03ZM95.8344 200.554L95.9741 196.667L99.3639 195.981L99.2242 199.868L95.8344 200.554ZM126.092 150.898L129.396 150.229L129.252 154.222L125.948 154.892L126.092 150.898ZM133.254 149.489L136.557 148.819L136.414 152.768L133.11 153.438L133.254 149.489ZM143.58 151.313L140.276 151.983L140.42 148.034L143.723 147.365L143.58 151.313ZM150.745 149.859L147.442 150.529L147.586 146.58L150.889 145.91L150.745 149.859ZM149.287 189.809L145.983 190.479L146.127 186.531L149.431 185.861L149.287 189.809ZM157.907 148.404L154.604 149.074L154.747 145.125L158.051 144.456L157.907 148.404ZM156.453 188.355L153.149 189.025L153.293 185.076L156.596 184.406L156.453 188.355ZM161.913 143.671L165.217 143.001L165.073 146.95L161.77 147.619L161.913 143.671ZM163.614 186.9L160.311 187.57L160.455 183.621L163.758 182.952L163.614 186.9ZM179.401 144.086L175.818 144.813L175.962 140.819L179.544 140.092L179.401 144.086ZM174.363 184.764L174.507 180.77L178.09 180.043L177.946 184.036L174.363 184.764ZM172.235 145.54L168.931 146.21L169.075 142.216L172.379 141.547L172.235 145.54ZM170.78 185.491L167.477 186.161L167.621 182.167L170.924 181.497L170.78 185.491ZM138.817 191.938L138.961 187.944L142.265 187.274L142.121 191.268L138.817 191.938ZM131.656 193.392L131.799 189.399L135.382 188.671L135.239 192.665L131.656 193.392ZM124.49 194.847L124.634 190.853L128.216 190.126L128.073 194.12L124.49 194.847ZM122.365 155.624L118.782 156.351L118.926 152.357L122.509 151.63L122.365 155.624ZM117.324 196.301L117.468 192.308L121.051 191.58L120.907 195.574L117.324 196.301ZM115.2 157.078L111.617 157.805L111.76 153.812L115.343 153.084L115.2 157.078ZM110.162 197.756L110.306 193.762L113.889 193.035L113.745 197.029L110.162 197.756ZM108.034 158.533L104.451 159.26L104.595 155.266L108.177 154.539L108.034 158.533ZM102.996 199.21L103.14 195.217L106.723 194.489L106.579 198.483L102.996 199.21ZM74.1478 204.959L74.2916 200.965L77.8745 200.238L77.7307 204.232L74.1478 204.959ZM66.9819 206.413L67.1257 202.42L70.7086 201.692L70.5648 205.686L66.9819 206.413ZM64.8576 167.19L61.2747 167.917L61.4185 163.923L65.0014 163.196L64.8576 167.19ZM59.816 207.868L59.9598 203.874L63.5428 203.147L63.399 207.141L59.816 207.868ZM57.6917 168.645L54.1088 169.372L54.2526 165.378L57.8355 164.651L57.6917 168.645ZM52.6543 209.322L52.7981 205.329L56.381 204.601L56.2372 208.595L52.6543 209.322ZM50.5259 170.099L46.9429 170.826L47.0867 166.833L50.6697 166.105L50.5259 170.099ZM45.4884 210.777L45.6322 206.783L49.2151 206.056L49.0713 210.05L45.4884 210.777ZM43.3641 171.554L39.7812 172.281L39.925 168.287L43.5079 167.56L43.3641 171.554ZM38.3225 212.232L38.4663 208.238L42.0493 207.51L41.9054 211.504L38.3225 212.232ZM36.1982 173.008L32.6153 173.735L32.7591 169.742L36.342 169.014L36.1982 173.008ZM31.1607 213.686L31.3046 209.692L34.8875 208.965L34.7437 212.959L31.1607 213.686ZM29.0323 174.463L25.4494 175.19L25.5932 171.196L29.1762 170.469L29.0323 174.463ZM23.9949 215.141L24.1387 211.147L27.7216 210.419L27.5778 214.413L23.9949 215.141ZM21.8706 175.917L18.2876 176.645L18.4314 172.651L22.0144 171.923L21.8706 175.917ZM16.829 216.595L16.9728 212.601L20.5557 211.874L20.4119 215.868L16.829 216.595ZM11.1218 178.099L11.2656 174.105L14.8485 173.378L14.7047 177.372L11.1218 178.099ZM3.95589 179.554L4.0997 175.56L7.68263 174.833L7.53882 178.826L3.95589 179.554Z" fill="#9CF43D"/>
<path d="M185.276 182.442L185.289 185.368C185.301 188.051 187.877 190.237 191.012 190.224L218.492 190.105C221.628 190.093 224.187 187.882 224.175 185.199L223.953 134.151C223.941 131.468 221.365 129.282 218.229 129.294L213.771 129.315C213.323 126.997 210.957 125.218 208.13 125.23L201.293 125.259C198.462 125.271 196.111 127.071 195.684 129.393L190.745 129.413C187.61 129.425 185.05 131.636 185.063 134.319L185.075 137.245L185.276 182.442ZM213.886 138.144C213.882 136.899 215.066 135.88 216.516 135.872C217.967 135.864 219.162 136.879 219.166 138.12L219.359 182.085C219.364 183.326 218.18 184.349 216.73 184.357C215.279 184.365 214.084 183.35 214.08 182.109L213.886 138.144Z" fill="#9CF43D"/>
<path d="M35.0724 203.841C35.0683 203.755 35.0683 203.615 35.0724 203.418C35.0765 203.221 35.0765 203.106 35.0765 203.077C35.0765 203.048 35.1094 202.962 35.1833 202.822C35.2573 202.678 35.3395 202.522 35.434 202.346C35.5285 202.169 35.6107 202.013 35.6846 201.869C35.7586 201.725 35.7956 201.627 35.7915 201.569C35.7873 201.458 35.7422 201.298 35.6559 201.088C35.5696 200.879 35.471 200.677 35.3641 200.472C35.2573 200.271 35.1587 200.086 35.0765 199.917C34.9902 199.753 34.9491 199.654 34.9491 199.626C34.9491 199.568 34.9368 199.424 34.9163 199.186C34.8957 198.952 34.8834 198.763 34.8793 198.623L34.8587 198.077C34.8464 197.768 34.9409 197.567 35.1381 197.468C35.7956 197.612 36.3256 197.69 36.7283 197.707C37.131 197.723 37.5706 197.678 38.039 197.579L39.1073 197.353C39.5963 197.251 40.0154 197.148 40.3605 197.049C40.7057 196.951 40.9933 196.79 41.2193 196.573C41.4453 196.355 41.6425 196.039 41.8068 195.624C41.9712 195.209 42.1315 194.617 42.2835 193.848L42.5916 192.172C42.5711 192.176 42.4889 192.258 42.3492 192.414C42.2095 192.571 42.0575 192.739 41.8972 192.912C41.7329 193.088 41.5891 193.244 41.4576 193.384C41.3261 193.524 41.2522 193.581 41.2275 193.561C40.8906 193.549 40.4674 193.507 39.962 193.446C39.4566 193.384 38.9635 193.31 38.491 193.228C38.0185 193.146 37.4391 193.031 36.7612 192.891L35.7873 192.928L35.775 189.711L34.2917 189.727C34.2753 189.279 34.2712 188.671 34.2753 187.907C34.2794 187.143 34.3205 186.309 34.3862 185.405C34.452 184.501 34.5629 183.576 34.7067 182.627C34.8505 181.678 35.0478 180.811 35.2861 180.026C35.5285 179.241 35.8325 178.576 36.2065 178.033C36.5804 177.487 37.0241 177.162 37.5336 177.056L37.6322 177.035C37.6774 177.08 37.735 177.125 37.8048 177.166C37.8747 177.208 37.9075 177.257 37.9116 177.314C37.9116 177.372 37.8993 177.466 37.8706 177.598C37.8418 177.729 37.813 177.877 37.7843 178.038C37.7555 178.198 37.735 178.346 37.7144 178.477C37.698 178.609 37.6898 178.687 37.6898 178.715C37.6898 178.773 37.7267 178.835 37.7966 178.904C37.8664 178.974 37.924 179.003 37.9692 178.995C38.1869 178.185 38.3965 177.557 38.5937 177.105C38.7909 176.653 39.0334 176.398 39.3251 176.336C40.6194 176.065 41.9096 175.786 43.2039 175.502C44.4941 175.215 45.7637 175.182 47.0046 175.4L47.0539 176.83C47.0703 177.277 47.0457 177.721 46.984 178.157C46.9224 178.592 46.7457 178.843 46.454 178.904L46.3184 178.933L46.9265 180.84C46.9388 181.205 46.8731 181.534 46.7252 181.834C46.5773 182.134 46.3965 182.418 46.1828 182.689C45.4144 182.541 44.6707 182.442 43.9476 182.397C43.2285 182.352 42.4766 182.409 41.6959 182.574C41.0714 182.705 40.6317 182.898 40.3687 183.149C40.1099 183.404 39.9907 183.934 40.0236 184.747C40.0483 185.421 40.2455 185.894 40.6112 186.169C40.981 186.444 41.4412 186.629 41.9959 186.724C42.5506 186.818 43.1422 186.9 43.775 186.962C44.4078 187.028 44.9994 187.192 45.5624 187.455C46.1212 187.718 46.5896 188.129 46.9717 188.684C47.3497 189.238 47.5593 190.077 47.6004 191.198C47.6168 191.617 47.6168 192.295 47.6045 193.232C47.5921 194.165 47.5223 195.135 47.3867 196.137C47.2552 197.14 47.0374 198.04 46.7416 198.837C46.4458 199.634 46.0184 200.09 45.4596 200.205C45.4144 200.213 45.3569 200.184 45.2871 200.115C45.2172 200.045 45.1802 199.983 45.1802 199.925L44.9255 200.316C44.9501 200.369 45.02 200.443 45.135 200.546C45.2501 200.649 45.3775 200.764 45.5172 200.887C45.6569 201.014 45.7801 201.158 45.887 201.318C45.9938 201.479 46.0513 201.631 46.0554 201.77C46.0554 201.828 45.9527 201.91 45.7432 202.025C45.5336 202.14 45.4062 202.214 45.3651 202.251C44.8392 202.646 44.342 202.962 43.8654 203.2C43.3929 203.443 42.908 203.648 42.4232 203.821C41.9342 203.993 41.4329 204.133 40.9234 204.244C40.4345 204.347 39.9085 204.458 39.3539 204.573C39.1073 204.622 38.754 204.721 38.2855 204.86C37.8212 205 37.3528 205.09 36.8803 205.136C36.4119 205.177 35.9928 205.111 35.6271 204.934C35.282 204.77 35.0929 204.4 35.0724 203.841Z" fill="black"/>
<path d="M52.0914 198.524C51.9065 197.772 51.7421 196.959 51.5983 196.088C51.4545 195.213 51.3271 194.329 51.2162 193.438C51.1052 192.542 51.0189 191.65 50.9532 190.763C50.8875 189.875 50.8423 189.049 50.8135 188.293C50.8053 188.014 50.7971 187.533 50.7971 186.859C50.7971 186.181 50.793 185.47 50.7888 184.723C50.7847 183.975 50.7888 183.26 50.7971 182.582C50.8053 181.904 50.8176 181.436 50.8299 181.177C50.871 181.111 50.9162 180.938 50.9614 180.663C51.0066 180.384 51.0395 180.203 51.06 180.112C51.0765 179.969 51.1093 179.714 51.1504 179.352C51.1915 178.991 51.2408 178.609 51.2942 178.198C51.3477 177.791 51.4011 177.405 51.4545 177.043C51.5079 176.677 51.5449 176.423 51.5613 176.279C52.0051 176.131 52.2557 175.893 52.3091 175.572C52.3625 175.252 52.3872 174.894 52.3708 174.5C52.3625 174.249 52.4201 173.982 52.5433 173.703C52.605 173.546 52.7899 173.39 53.098 173.226C53.4062 173.062 53.7719 172.91 54.1951 172.762C54.6142 172.618 55.0621 172.486 55.5305 172.375C55.9989 172.265 56.4221 172.166 56.8001 172.088L57.9383 171.85C58.3163 171.771 58.6902 171.669 59.0559 171.55C59.4216 171.43 59.7667 171.365 60.0913 171.352C60.4159 171.34 60.7159 171.41 60.9912 171.566C61.2665 171.722 61.4884 172.018 61.665 172.462C61.7143 172.593 61.7678 172.708 61.8294 172.807C61.8869 172.91 61.928 172.955 61.9527 172.951L63.8304 172.684L64.1098 172.963L64.2249 175.227L63.7195 176.18C63.7318 176.517 63.8263 176.858 64.0071 177.199C64.1879 177.54 64.2824 177.853 64.2947 178.136L64.3563 179.862C64.3687 180.227 64.3687 180.638 64.3481 181.09C64.3317 181.546 64.2783 181.986 64.192 182.413C64.1057 182.841 63.9783 183.206 63.8099 183.51C63.6414 183.815 63.4113 183.995 63.1237 184.057C63.0785 184.065 63.0004 184.069 62.8895 184.065C62.8443 184.073 62.7087 184.004 62.4786 183.856C62.2485 183.708 62.1088 183.609 62.0636 183.56L61.928 183.589C61.55 183.667 61.1802 183.86 60.8186 184.16C60.457 184.46 60.0667 184.657 59.6435 184.743C59.4873 184.776 59.3189 184.776 59.1381 184.743C58.9573 184.71 58.8628 184.542 58.8505 184.23L58.6491 178.637C58.6039 178.646 58.5053 178.662 58.3492 178.678C58.193 178.699 58.0246 178.72 57.8479 178.744C57.6671 178.769 57.5027 178.789 57.3466 178.806C57.1905 178.826 57.0877 178.839 57.0467 178.847C57.0015 178.855 56.948 178.909 56.8823 179.007C56.8166 179.106 56.7878 179.184 56.7878 179.237C56.7714 179.41 56.7426 179.714 56.7015 180.145C56.6604 180.577 56.6276 181.029 56.5988 181.501C56.57 181.974 56.5372 182.418 56.4961 182.837C56.455 183.256 56.4262 183.552 56.4098 183.724C56.3892 183.815 56.3564 183.995 56.3112 184.275C56.266 184.554 56.2208 184.723 56.1797 184.788L56.229 187.151L55.3456 188.778L56.1016 189.168C56.2372 189.226 56.3851 189.546 56.5413 190.134C56.6974 190.722 56.8494 191.346 56.9974 192.008C57.1453 192.669 57.2685 193.273 57.363 193.816C57.4617 194.362 57.5192 194.629 57.5438 194.625L59.8736 193.84C59.8736 193.811 59.8818 193.754 59.9023 193.664C59.9229 193.573 59.9311 193.516 59.9311 193.487C59.9064 193.438 59.89 193.327 59.8859 193.158C59.8818 192.99 59.853 192.883 59.8078 192.838L59.6969 189.686C59.8119 189.719 60.0174 189.69 60.3173 189.6C60.6173 189.509 60.8227 189.452 60.9337 189.427L61.7349 189.259C61.7554 189.255 61.8212 189.275 61.9239 189.325C62.0266 189.374 62.1417 189.435 62.269 189.505C62.3964 189.579 62.5073 189.637 62.6101 189.686C62.7128 189.735 62.7868 189.756 62.832 189.744C63.0497 189.559 63.2182 189.407 63.3373 189.3C63.4565 189.189 63.5715 189.086 63.6784 188.996C63.7893 188.901 63.851 188.84 63.8756 188.807C63.9865 188.729 64.1961 188.626 64.5043 188.507C64.8124 188.388 65.0261 188.314 65.137 188.289C65.1781 189.464 65.1699 190.607 65.1083 191.704C65.0466 192.805 64.9809 193.955 64.911 195.155C64.8412 196.301 64.6974 197.209 64.4878 197.892C64.2783 198.574 63.9907 199.112 63.6373 199.51C63.2798 199.909 62.8443 200.201 62.3225 200.382C61.8006 200.562 61.1925 200.723 60.5022 200.87L59.0641 201.17L57.0549 201.548C56.8412 201.17 56.57 200.965 56.2413 200.936C55.9126 200.907 55.5839 200.928 55.2511 200.998C55.1401 201.023 55.0333 201.035 54.9347 201.043C54.832 201.051 54.7251 201.051 54.6142 201.047C54.5937 201.051 54.5526 201.018 54.4909 200.944C54.4334 200.87 54.38 200.813 54.3348 200.768L54.1499 198.434C54.1006 198.36 54.0102 198.335 53.8787 198.364C53.7472 198.393 53.5993 198.438 53.4473 198.496C53.2912 198.557 53.1432 198.615 52.9994 198.676C52.8556 198.734 52.7488 198.771 52.683 198.783C52.5269 198.816 52.3995 198.828 52.2968 198.82C52.1859 198.816 52.1201 198.717 52.0914 198.524ZM62.5854 178.403L62.5813 178.317C62.5813 178.263 62.532 178.243 62.4457 178.259C62.3553 178.28 62.3142 178.329 62.3183 178.415C62.3183 178.473 62.3348 178.576 62.3635 178.724C62.3923 178.872 62.4252 178.941 62.4704 178.933C62.4909 178.929 62.5115 178.855 62.5279 178.707C62.5484 178.568 62.569 178.465 62.5854 178.403Z" fill="black"/>
<path d="M75.6064 187.443C75.29 187.398 75.0887 187.455 75.0065 187.611C74.9202 187.771 74.8873 187.96 74.9079 188.182C74.9284 188.404 74.9613 188.622 75.0147 188.836C75.0681 189.049 75.0845 189.189 75.064 189.251C75.0435 189.341 75.0065 189.559 74.9531 189.908C74.8997 190.257 74.8627 190.508 74.8462 190.652L74.8503 190.82C74.8791 191.576 74.949 192.324 75.064 193.064C75.1791 193.803 75.253 194.547 75.2777 195.307L75.3146 196.318C75.2736 196.384 75.1421 196.474 74.9202 196.593C74.6983 196.712 74.4559 196.832 74.1929 196.959C73.93 197.086 73.6793 197.201 73.4492 197.308C73.2191 197.415 73.0671 197.473 73.0014 197.485C72.9808 197.489 72.9274 197.444 72.8452 197.349C72.763 197.255 72.6685 197.152 72.5658 197.049C72.4631 196.947 72.3686 196.844 72.2864 196.749C72.2042 196.655 72.1508 196.61 72.1303 196.614C72.0193 196.638 71.8262 196.704 71.5468 196.819C71.2715 196.934 70.9716 197.066 70.6511 197.218C70.3306 197.37 70.0306 197.501 69.7553 197.616C69.48 197.731 69.2828 197.801 69.1719 197.822C69.1678 197.711 69.1678 197.514 69.1678 197.23C69.1678 196.947 69.1637 196.667 69.1554 196.384C69.1431 196.075 69.139 195.78 69.139 195.496C69.139 195.213 69.139 195.015 69.1349 194.904C69.1349 194.847 69.139 194.699 69.1513 194.457C69.1637 194.214 69.1842 193.964 69.2089 193.705C69.2335 193.446 69.2582 193.191 69.2828 192.949C69.3075 192.702 69.3198 192.554 69.3157 192.497C69.328 192.242 69.3362 191.695 69.3403 190.861C69.3445 190.027 69.3403 189.123 69.328 188.154C69.3157 187.18 69.3034 186.247 69.2951 185.343C69.2828 184.443 69.2746 183.782 69.2582 183.359L69.628 182.348L69.5335 179.743L68.3419 179.402L68.2967 178.181L68.2761 177.549C68.2638 177.183 68.2803 176.834 68.3213 176.501C68.3665 176.168 68.5062 175.905 68.7487 175.712C68.9705 175.609 69.1349 175.42 69.2499 175.141C69.365 174.861 69.3979 174.73 69.3527 174.738C68.8185 174.849 68.4734 174.775 68.3172 174.512C68.1611 174.249 68.0707 173.682 68.0378 172.815C68.0255 172.449 68.0173 172.121 68.0214 171.825C68.0214 171.529 68.0214 171.295 68.0132 171.126L68.0009 170.789C69.2582 170.161 70.499 169.733 71.7276 169.52C72.9562 169.302 74.1806 169.068 75.4092 168.809C80.4672 167.745 83.1092 170.325 83.3311 176.546C83.3352 176.686 83.3393 176.903 83.3393 177.199C83.3393 177.495 83.3393 177.66 83.3393 177.684C83.2982 177.836 83.2119 178.07 83.0804 178.395C82.9448 178.72 82.801 179.061 82.6449 179.418C82.4887 179.776 82.3367 180.104 82.1929 180.404C82.045 180.704 81.9299 180.918 81.8436 181.049C81.819 181.053 81.8026 181.127 81.7861 181.275C81.7697 181.419 81.7574 181.571 81.7533 181.727C81.7491 181.883 81.7368 182.035 81.7204 182.179C81.7039 182.323 81.6834 182.397 81.6629 182.401C81.556 182.508 81.4204 182.578 81.2643 182.611C81.1739 182.627 81.0589 182.648 80.9109 182.664C80.7671 182.681 80.6274 182.701 80.4918 182.73C80.3562 182.759 80.1796 182.783 79.9536 182.8C79.9536 182.857 80.0152 182.972 80.1344 183.145C80.2535 183.317 80.385 183.511 80.5247 183.72C80.6685 183.93 80.8041 184.119 80.9315 184.291C81.0589 184.46 81.1369 184.558 81.1616 184.583C81.1862 184.69 81.2438 184.953 81.3259 185.376C81.4081 185.795 81.5026 186.247 81.6094 186.736C81.7163 187.221 81.8149 187.665 81.9094 188.071C82.0039 188.474 82.0737 188.716 82.1189 188.79C82.1683 188.951 82.2751 189.238 82.4353 189.657C82.5956 190.077 82.7764 190.516 82.9695 190.985C83.1667 191.453 83.3516 191.893 83.5201 192.308C83.6926 192.723 83.8159 193.01 83.8858 193.162C83.9392 193.433 83.9679 193.598 83.972 193.651C83.9844 194.017 83.8652 194.329 83.6187 194.592C83.368 194.855 83.0804 195.081 82.7517 195.262C82.423 195.443 82.0779 195.587 81.7245 195.689C81.367 195.792 81.0917 195.866 80.8904 195.907L80.7055 194.506C80.5 195.028 80.2782 195.484 80.0481 195.874C79.8139 196.26 79.4646 196.507 78.9962 196.606C78.5935 196.692 78.2936 196.38 78.0881 195.673C77.8827 194.966 77.6855 194.111 77.4923 193.109C77.2992 192.106 77.0732 191.1 76.8103 190.097C76.5514 189.095 76.1734 188.318 75.6844 187.771L75.6064 187.443ZM74.7353 175.301L74.9284 180.684C74.9325 180.852 75.0229 180.959 75.1914 181.008C75.3598 181.058 75.5037 181.07 75.6146 181.045L75.7831 181.012C76.3624 180.889 76.7938 180.491 77.0691 179.808C77.3485 179.13 77.4759 178.453 77.4513 177.779C77.4472 177.692 77.4348 177.536 77.4184 177.298C77.3978 177.064 77.3773 176.813 77.3568 176.546C77.3362 176.283 77.2992 176.057 77.2499 175.872C77.1965 175.687 77.139 175.597 77.0732 175.613L74.7353 175.301Z" fill="black"/>
<path d="M89.7409 193.664C89.4739 193.721 89.2602 193.828 89.0958 193.988C88.9315 194.148 88.7302 194.255 88.4836 194.309C88.2165 194.366 88.0768 194.251 88.0686 193.972L87.9988 192.036C87.9906 191.786 87.9823 191.4 87.9741 190.878C87.9659 190.356 87.9577 189.76 87.9454 189.086C87.933 188.412 87.9166 187.71 87.9043 186.978C87.8878 186.247 87.8796 185.549 87.8796 184.887C87.8796 184.225 87.8796 183.617 87.8796 183.067C87.8837 182.516 87.8919 182.109 87.9043 181.855C87.9412 181.649 87.9947 181.456 88.0686 181.271C88.1385 181.086 88.2535 180.91 88.4014 180.737L87.8303 179.841L87.5345 171.558C87.5263 171.278 87.1606 171.126 86.4415 171.11L86.3717 170.066C86.3552 169.59 86.4086 169.261 86.5401 169.076C86.6675 168.895 86.8976 168.657 87.2222 168.361L87.4194 168.193C86.9921 168.226 86.7456 168.131 86.6675 167.905C86.5894 167.679 86.5483 167.416 86.536 167.108L86.5237 166.812C86.5196 166.644 86.5278 166.479 86.5566 166.319C86.5853 166.159 86.6634 166.035 86.7949 165.953L89.4698 165.39L99.2694 163.459C99.3187 163.619 99.3804 163.747 99.4502 163.845C99.5201 163.944 99.557 164.022 99.5611 164.076C99.5653 164.215 99.5283 164.429 99.4502 164.712C99.3721 165 99.2448 165.23 99.0722 165.407C99.1174 165.427 99.2078 165.456 99.3434 165.497C99.479 165.538 99.5694 165.584 99.6187 165.629L99.6228 165.756C99.631 166.007 99.6187 166.294 99.5858 166.611C99.5529 166.931 99.4954 167.244 99.4173 167.556C99.3393 167.868 99.2365 168.152 99.1092 168.402C98.9818 168.657 98.8339 168.842 98.6572 168.965C98.8133 168.99 98.9161 169.187 98.9654 169.557C99.0106 169.927 99.0393 170.185 99.0434 170.325L93.7265 171.443C93.7265 171.472 93.7142 171.574 93.6855 171.747C93.6567 171.919 93.6279 172.141 93.591 172.4C93.554 172.663 93.5293 172.864 93.5129 173.008C93.4759 173.242 93.4307 173.592 93.3814 174.052C93.3321 174.512 93.3074 174.816 93.3115 174.956L93.328 175.42C93.3321 175.56 93.3485 175.683 93.3773 175.79C93.4019 175.897 93.4882 176.049 93.6279 176.246C94.462 176.353 95.403 176.295 96.4507 176.078C96.6973 176.028 96.9232 175.971 97.1369 175.913C97.3465 175.856 97.5766 175.786 97.819 175.708L97.9176 175.687L98.197 175.967L98.2833 178.321L97.7615 178.769L97.9258 178.691C98.1025 178.654 98.2175 178.699 98.2668 178.831C98.3162 178.962 98.3449 179.098 98.349 179.237L98.3614 179.574C98.4066 180.807 98.2463 181.653 97.8806 182.109C97.5149 182.565 97.0095 182.865 96.3644 183.001C96.007 183.075 95.6207 183.137 95.2099 183.182C94.7949 183.227 94.3552 183.272 93.8827 183.313L93.3609 183.761L93.4718 186.831L93.7512 187.11C94.1292 187.003 94.5072 186.9 94.8852 186.806C95.2633 186.711 95.6413 186.625 96.0193 186.547C96.7342 186.399 97.441 186.284 98.1477 186.206C98.8503 186.128 99.5858 186.079 100.35 186.062L100.399 186.559L100.108 190.602C100.112 190.742 100.132 190.882 100.173 191.013C100.21 191.145 100.247 191.309 100.276 191.498L99.7666 192.283L98.6942 192.468L98.0573 192.603C96.8534 192.858 95.6906 193.166 94.573 193.528C93.4513 193.89 92.2556 194.206 90.9859 194.473C90.8092 194.51 90.6819 194.481 90.612 194.383C90.5422 194.284 90.4764 194.177 90.4148 194.066C90.3532 193.951 90.2792 193.848 90.1847 193.754C90.0861 193.647 89.9423 193.618 89.7409 193.664ZM97.0671 179.118L96.7342 179.188C96.5329 179.229 96.4343 179.295 96.4384 179.377C96.4425 179.488 96.5617 179.55 96.8 179.554C97.0342 179.562 97.1862 179.558 97.2561 179.541C97.3917 179.513 97.4533 179.385 97.4451 179.163C97.441 179.077 97.3834 179.048 97.2725 179.073L97.0671 179.118ZM99.3721 188.971L99.368 188.844C99.3639 188.733 99.3475 188.614 99.3228 188.495C99.2941 188.375 99.2612 188.318 99.216 188.326C99.1256 188.343 99.0845 188.454 99.0927 188.647C99.1051 189.012 99.1585 189.185 99.2448 189.164C99.3105 189.152 99.3557 189.086 99.3721 188.971Z" fill="black"/>
<path d="M106.887 189.127C106.797 189.148 106.735 189.164 106.702 189.189C106.67 189.209 106.6 189.345 106.497 189.592C106.394 189.838 106.255 190.159 106.078 190.549C105.901 190.939 105.757 191.149 105.646 191.169L103.641 191.593C103.592 190.274 103.67 188.959 103.871 187.648C104.073 186.333 104.311 185.023 104.59 183.708C104.87 182.393 105.149 181.078 105.425 179.763C105.704 178.448 105.897 177.117 106.008 175.765L106.78 174.713C106.789 174.372 106.813 173.789 106.854 172.963C106.891 172.137 106.941 171.25 106.994 170.309C107.052 169.364 107.097 168.48 107.134 167.654C107.171 166.828 107.195 166.245 107.208 165.904C107.204 165.818 107.22 165.625 107.253 165.321C107.286 165.016 107.327 164.684 107.368 164.322C107.409 163.96 107.454 163.599 107.5 163.237C107.541 162.876 107.582 162.605 107.623 162.428C107.643 162.342 107.676 162.157 107.721 161.877C107.767 161.598 107.812 161.429 107.853 161.364L109.291 161.06C109.513 161.014 109.727 160.99 109.928 160.99C110.129 160.99 110.232 161.06 110.24 161.199L110.335 163.891L110.614 164.17L111.119 161.351C111.633 161.327 112.134 161.179 112.619 160.908C113.104 160.636 113.601 160.447 114.115 160.341L114.85 160.184C115.183 160.115 115.532 160.069 115.89 160.049C116.247 160.032 116.654 160.045 117.102 160.09C117.012 160.673 116.954 161.101 116.929 161.376C116.905 161.651 116.901 162.009 116.917 162.457C116.966 163.887 117.061 165.251 117.196 166.549C117.332 167.847 117.406 169.257 117.414 170.781C117.484 170.822 117.583 170.909 117.71 171.036C117.837 171.163 117.924 171.266 117.973 171.34C118.096 171.71 118.187 172.108 118.236 172.536C118.285 172.963 118.318 173.403 118.335 173.851C118.351 174.27 118.372 174.697 118.396 175.128C118.421 175.56 118.487 175.979 118.593 176.377C118.803 177.236 119.05 178.103 119.325 178.978C119.604 179.854 119.875 180.733 120.143 181.625C120.41 182.516 120.64 183.42 120.829 184.34C121.018 185.261 121.133 186.198 121.166 187.151C121.182 187.57 121.059 187.829 120.804 187.923C120.549 188.018 120.266 188.1 119.954 188.166C119.641 188.232 119.399 188.248 119.23 188.211C119.062 188.178 118.918 188.112 118.803 188.026C118.688 187.94 118.565 187.821 118.437 187.681C118.31 187.537 118.129 187.393 117.899 187.245C117.743 187.25 117.64 187.258 117.595 187.266L115.006 189.251C114.805 189.238 114.649 188.975 114.542 188.458C114.435 187.944 114.345 187.389 114.279 186.798C114.213 186.206 114.144 185.668 114.07 185.191C113.996 184.714 113.893 184.488 113.757 184.513L110.281 185.244C110.261 185.249 110.224 185.335 110.17 185.499C110.121 185.668 110.076 185.824 110.035 185.972C109.998 186.148 109.944 186.444 109.883 186.851C109.817 187.262 109.751 187.697 109.677 188.166C109.603 188.634 109.542 189.078 109.488 189.497C109.435 189.916 109.402 190.216 109.386 190.389C109.386 190.446 109.357 190.52 109.291 190.619C109.225 190.717 109.172 190.771 109.127 190.779L108.58 190.557L108.058 191.005C107.947 191.054 107.845 191.1 107.742 191.137C107.643 191.169 107.549 191.198 107.458 191.219L107.126 191.289L107.052 189.185C107.056 189.119 107.002 189.103 106.887 189.127ZM112.188 170.563C112.077 171.237 111.941 171.87 111.785 172.47C111.625 173.07 111.485 173.657 111.358 174.233C111.23 174.812 111.124 175.404 111.033 176.016C110.943 176.628 110.91 177.269 110.935 177.943C110.98 177.935 111.058 177.91 111.169 177.873C111.28 177.836 111.345 177.816 111.37 177.811C111.436 177.799 111.563 177.762 111.752 177.709C111.941 177.655 112.147 177.59 112.369 177.516C112.59 177.442 112.8 177.368 113.001 177.298C113.203 177.228 113.334 177.17 113.4 177.129L112.447 170.214L112.188 170.563Z" fill="black"/>
<path d="M143.399 180.606C143.415 181.053 143.288 181.456 143.021 181.805C142.754 182.159 142.421 182.463 142.026 182.713C141.632 182.964 141.217 183.174 140.786 183.334C140.354 183.494 139.993 183.605 139.705 183.667L139.372 183.737C139.126 183.79 138.846 183.819 138.534 183.827C138.222 183.835 138.057 183.728 138.049 183.506C138.049 183.478 138.049 183.317 138.049 183.022C138.049 182.726 138.045 182.467 138.037 182.241L138.02 181.822C138.217 181.694 138.369 181.608 138.48 181.555C138.591 181.505 138.735 181.415 138.908 181.296C138.908 181.267 138.854 181.23 138.752 181.181C138.649 181.132 138.534 181.095 138.411 181.062C138.287 181.033 138.168 180.992 138.053 180.947C137.938 180.901 137.872 180.864 137.848 180.84L137.412 171.443C137.396 171.644 137.334 172.096 137.223 172.795C137.112 173.497 136.989 174.257 136.849 175.075C136.71 175.897 136.582 176.657 136.459 177.36C136.34 178.062 136.258 178.518 136.221 178.724L135.896 180.996L136.023 181.731L135.538 183.19L133.969 183.519L132.814 184.184L132.498 183.827C132.477 183.831 132.428 183.798 132.358 183.728C132.288 183.658 132.239 183.597 132.219 183.548L132.108 183.317L132.005 183.256L132.034 183.079C131.906 182.681 131.832 182.27 131.804 181.834C131.779 181.403 131.701 181 131.578 180.634C131.417 179.907 131.236 179.13 131.039 178.313C130.842 177.495 130.653 176.735 130.468 176.041C130.287 175.346 130.135 174.763 130.02 174.294C129.901 173.826 129.844 173.575 129.844 173.547L129.342 172.68L129.564 174.118C129.605 175.297 129.634 176.271 129.65 177.043C129.667 177.816 129.687 178.539 129.712 179.213C129.737 179.858 129.782 180.54 129.852 181.259C129.922 181.978 130.033 182.886 130.185 183.983C130.185 184.012 130.193 184.094 130.209 184.23C130.226 184.369 130.234 184.464 130.238 184.521C130.242 184.661 130.242 184.817 130.238 184.986C130.234 185.158 130.144 185.29 129.967 185.38L129.564 185.466C129.388 185.503 129.153 185.581 128.866 185.696C128.578 185.816 128.311 185.898 128.064 185.951C127.908 185.984 127.793 185.964 127.723 185.894L126.285 184.332L125.681 186.28C125.64 186.432 125.533 186.522 125.357 186.559C125.135 186.605 124.88 186.547 124.592 186.383C124.305 186.218 124.157 185.968 124.145 185.631L124.132 185.253C124.206 183.601 124.256 181.998 124.28 180.458C124.305 178.913 124.305 177.38 124.284 175.86C124.264 174.34 124.219 172.815 124.153 171.291C124.087 169.766 124.013 168.18 123.931 166.529L124.818 165.92L123.947 159.412L124.445 158.29L129.761 157.173C129.807 157.164 129.868 157.329 129.946 157.662C130.024 157.999 130.123 158.401 130.242 158.87C130.361 159.338 130.485 159.806 130.612 160.275C130.739 160.743 130.867 161.088 130.986 161.319L131.278 161.935C131.327 162.124 131.417 162.292 131.549 162.448C131.676 162.605 131.812 162.769 131.951 162.933C132.091 163.102 132.223 163.266 132.338 163.422C132.457 163.583 132.531 163.755 132.56 163.948L133.558 167.379L134.926 168.024L134.137 165.777C134.388 165.218 134.593 164.7 134.754 164.228C134.918 163.755 135.082 163.2 135.251 162.555C135.419 161.914 135.555 161.199 135.662 160.415C135.756 159.913 135.806 159.396 135.81 158.857C135.814 158.319 135.904 157.793 136.089 157.275C136.11 157.214 136.151 157.136 136.216 157.037C136.282 156.938 136.323 156.889 136.344 156.881L139.553 156.207L140.136 157.44C140.165 156.984 140.206 156.622 140.264 156.355C140.321 156.088 140.403 155.837 140.506 155.607C140.609 155.377 140.728 155.258 140.864 155.258H142.482L142.503 155.804C142.556 157.316 142.556 158.767 142.507 160.143C142.454 161.524 142.458 162.97 142.511 164.482C142.548 165.493 142.639 166.455 142.782 167.371C142.926 168.287 143.017 169.249 143.054 170.255C143.066 170.65 143.029 171.003 142.939 171.315C142.848 171.632 142.811 171.985 142.824 172.376C142.873 173.805 142.967 175.178 143.107 176.488C143.251 177.803 143.345 179.176 143.399 180.606Z" fill="black"/>
<path d="M146.924 180.33C146.92 180.244 146.92 180.104 146.924 179.907C146.928 179.71 146.928 179.595 146.928 179.566C146.928 179.537 146.961 179.451 147.035 179.311C147.109 179.167 147.191 179.011 147.286 178.835C147.38 178.658 147.462 178.502 147.536 178.358C147.61 178.214 147.647 178.116 147.643 178.062C147.639 177.951 147.594 177.791 147.508 177.581C147.421 177.372 147.323 177.171 147.216 176.965C147.109 176.764 147.01 176.579 146.928 176.41C146.842 176.246 146.801 176.147 146.801 176.119C146.801 176.061 146.789 175.917 146.768 175.679C146.747 175.445 146.735 175.256 146.731 175.116L146.711 174.57C146.698 174.261 146.793 174.06 146.99 173.961C147.647 174.105 148.177 174.183 148.58 174.2C148.987 174.216 149.422 174.171 149.891 174.072L150.959 173.846C151.448 173.744 151.867 173.641 152.212 173.542C152.557 173.444 152.845 173.284 153.071 173.066C153.297 172.848 153.494 172.532 153.659 172.117C153.823 171.702 153.983 171.11 154.135 170.342L154.448 168.665C154.427 168.669 154.345 168.751 154.205 168.908C154.065 169.064 153.913 169.232 153.753 169.405C153.593 169.581 153.445 169.738 153.318 169.877C153.186 170.017 153.112 170.074 153.087 170.054C152.751 170.042 152.327 170.001 151.822 169.939C151.317 169.877 150.823 169.803 150.351 169.721C149.874 169.639 149.299 169.524 148.621 169.384L147.647 169.421L147.635 166.204L146.152 166.22C146.135 165.773 146.131 165.164 146.135 164.4C146.143 163.636 146.18 162.802 146.246 161.898C146.316 160.994 146.423 160.069 146.567 159.12C146.711 158.171 146.908 157.304 147.146 156.519C147.388 155.735 147.693 155.069 148.071 154.527C148.444 153.98 148.888 153.655 149.398 153.549L149.496 153.528C149.542 153.573 149.599 153.618 149.669 153.66C149.739 153.701 149.772 153.75 149.776 153.807C149.776 153.865 149.763 153.959 149.735 154.091C149.706 154.222 149.677 154.37 149.648 154.531C149.62 154.691 149.599 154.839 149.579 154.97C149.558 155.102 149.554 155.18 149.554 155.209C149.554 155.266 149.591 155.328 149.661 155.398C149.731 155.467 149.788 155.5 149.833 155.488C150.051 154.679 150.261 154.05 150.458 153.598C150.655 153.146 150.897 152.891 151.189 152.83C152.483 152.558 153.774 152.279 155.068 151.991C156.358 151.704 157.628 151.671 158.869 151.893L158.918 153.323C158.934 153.77 158.91 154.214 158.848 154.65C158.786 155.085 158.61 155.336 158.318 155.398L158.182 155.426L158.791 157.333C158.803 157.699 158.737 158.027 158.589 158.327C158.441 158.627 158.261 158.911 158.047 159.182C157.279 159.034 156.535 158.935 155.812 158.89C155.093 158.845 154.341 158.902 153.56 159.067C152.935 159.198 152.496 159.391 152.233 159.642C151.974 159.897 151.855 160.427 151.888 161.24C151.912 161.914 152.11 162.387 152.475 162.662C152.845 162.937 153.305 163.122 153.86 163.217C154.415 163.311 155.006 163.393 155.635 163.459C156.268 163.525 156.859 163.689 157.422 163.952C157.981 164.215 158.45 164.626 158.832 165.181C159.21 165.736 159.419 166.574 159.46 167.695C159.477 168.115 159.477 168.793 159.464 169.729C159.452 170.662 159.382 171.632 159.247 172.634C159.115 173.637 158.897 174.537 158.602 175.334C158.306 176.131 157.878 176.587 157.32 176.702C157.274 176.71 157.217 176.682 157.147 176.612C157.077 176.542 157.04 176.48 157.04 176.423L156.785 176.817C156.81 176.871 156.88 176.945 156.995 177.047C157.11 177.15 157.237 177.265 157.377 177.388C157.517 177.516 157.64 177.659 157.747 177.82C157.854 177.98 157.911 178.132 157.915 178.272C157.92 178.329 157.813 178.411 157.603 178.526C157.394 178.641 157.266 178.715 157.225 178.752C156.699 179.147 156.202 179.463 155.725 179.702C155.249 179.944 154.768 180.149 154.283 180.322C153.794 180.495 153.293 180.634 152.783 180.745C152.294 180.848 151.769 180.959 151.214 181.074C150.967 181.127 150.614 181.222 150.146 181.362C149.677 181.501 149.209 181.592 148.74 181.637C148.272 181.678 147.853 181.612 147.487 181.436C147.138 181.259 146.945 180.893 146.924 180.33Z" fill="black"/>
<path d="M33.0056 24.5259L39.0416 19.6404C41.2275 17.8736 43.4709 18.3585 44.7118 19.8911C45.8828 21.3374 45.7678 23.022 44.8638 24.1232C46.2362 23.322 48.1797 23.7164 49.3507 25.1628C50.7436 26.8844 50.7025 29.1895 48.5207 30.9604L42.2958 36.002L33.0056 24.5259ZM42.2424 24.6779C43.0682 24.0082 43.1504 23.059 42.5546 22.3194C41.9835 21.6127 41.022 21.4812 40.1961 22.151L37.135 24.6286L39.1813 27.1556L42.2424 24.6779ZM46.1992 29.3908C47.1278 28.6389 47.247 27.661 46.5772 26.8351C45.9938 26.1119 44.9748 25.9106 44.0133 26.6913L40.8659 29.2388L43.0518 31.9383L46.1992 29.3908Z" fill="#9CF43D"/>
<path d="M46.9882 14.0688L56.2085 9.16687L57.474 11.55L51.0272 14.9768L52.5351 17.8078L58.8464 14.455L60.1119 16.8381L53.8007 20.191L55.4114 23.2192L61.8582 19.7924L63.136 22.1961L53.9157 27.098L46.9882 14.0688Z" fill="#9CF43D"/>
<path d="M73.1287 12.1664L66.4929 14.2948L68.3871 20.1951L65.3958 21.1566L60.8843 7.10425L63.8755 6.14277L65.6465 11.661L72.2823 9.53259L70.5114 4.01026L73.5232 3.04468L78.0347 17.097L75.0229 18.0626L73.1287 12.1664Z" fill="#9CF43D"/>
<path d="M78.4744 2.14898L81.5642 1.58606L84.2062 16.1027L81.1164 16.6656L78.4744 2.14898Z" fill="#9CF43D"/>
<path d="M89.8929 5.36208L90.4106 15.2604L87.2756 15.4247L86.5072 0.686182L89.7327 0.517718L97.0588 9.70516L96.5575 0.164355L99.6967 0L100.465 14.7385L97.4368 14.8947L89.8929 5.36208Z" fill="#9CF43D"/>
<path d="M105.272 0.213623L111.045 0.949111C115.631 1.53668 118.441 4.86076 117.879 9.26958C117.316 13.6784 113.761 16.1684 109.176 15.5849L103.403 14.8453L105.272 0.213623ZM109.525 12.8443C112.422 13.2141 114.378 11.3446 114.694 8.86691C115.023 6.27832 113.7 4.08007 110.692 3.69384L108.038 3.3528L106.867 12.5033L109.525 12.8443Z" fill="#9CF43D"/>
<path d="M132.67 9.18327L128.693 7.51096L129.765 4.95935L140.617 9.5202L139.545 12.0718L135.588 10.4077L130.941 21.4647L128.023 20.2403L132.67 9.18327Z" fill="#9CF43D"/>
<path d="M148.444 24.8011L142.774 20.7498L139.175 25.7914L136.619 23.967L145.198 11.9568L147.754 13.7811L144.385 18.4981L150.055 22.5495L153.424 17.8325L156.001 19.6733L147.417 31.6794L144.841 29.8386L148.444 24.8011Z" fill="#9CF43D"/>
<path d="M160.524 24.0616L167.308 32.0041L165.254 33.7586L160.512 28.2075L158.071 30.2907L162.715 35.7185L160.66 37.473L156.017 32.037L153.408 34.264L158.15 39.8151L156.079 41.5819L149.295 33.6394L160.524 24.0616Z" fill="#9CF43D"/>
</svg>
